<mxfile host="app.diagrams.net" modified="2024-03-03T14:15:23.311Z" agent="Mozilla/5.0 (Macintosh; Intel Mac OS X 10_15_7) AppleWebKit/605.1.15 (KHTML, like Gecko) Version/17.1 Safari/605.1.15" etag="J0GqGlI6lMFb5ZuaEtPX" version="24.0.1" type="github">
  <diagram id="C5RBs43oDa-KdzZeNtuy" name="Page-1">
    <mxGraphModel dx="3420" dy="2303" grid="1" gridSize="10" guides="1" tooltips="1" connect="1" arrows="1" fold="1" page="1" pageScale="1" pageWidth="827" pageHeight="1169" math="0" shadow="0">
      <root>
        <mxCell id="WIyWlLk6GJQsqaUBKTNV-0" />
        <mxCell id="WIyWlLk6GJQsqaUBKTNV-1" parent="WIyWlLk6GJQsqaUBKTNV-0" />
        <mxCell id="WIyWlLk6GJQsqaUBKTNV-2" value="" style="rounded=0;html=1;jettySize=auto;orthogonalLoop=1;fontSize=11;endArrow=block;endFill=0;endSize=8;strokeWidth=1;shadow=0;labelBackgroundColor=none;edgeStyle=orthogonalEdgeStyle;" parent="WIyWlLk6GJQsqaUBKTNV-1" source="WIyWlLk6GJQsqaUBKTNV-3" target="WIyWlLk6GJQsqaUBKTNV-6" edge="1">
          <mxGeometry relative="1" as="geometry" />
        </mxCell>
        <mxCell id="SI-zspWhiQiBHQJMssZY-74" value="" style="edgeStyle=orthogonalEdgeStyle;rounded=0;orthogonalLoop=1;jettySize=auto;html=1;" edge="1" parent="WIyWlLk6GJQsqaUBKTNV-1" source="WIyWlLk6GJQsqaUBKTNV-3" target="SI-zspWhiQiBHQJMssZY-73">
          <mxGeometry relative="1" as="geometry" />
        </mxCell>
        <mxCell id="WIyWlLk6GJQsqaUBKTNV-3" value="Server gescanned" style="rounded=1;whiteSpace=wrap;html=1;fontSize=12;glass=0;strokeWidth=1;shadow=0;" parent="WIyWlLk6GJQsqaUBKTNV-1" vertex="1">
          <mxGeometry x="160" y="80" width="120" height="40" as="geometry" />
        </mxCell>
        <mxCell id="SI-zspWhiQiBHQJMssZY-2" value="Yes" style="edgeStyle=orthogonalEdgeStyle;rounded=0;orthogonalLoop=1;jettySize=auto;html=1;" edge="1" parent="WIyWlLk6GJQsqaUBKTNV-1" source="WIyWlLk6GJQsqaUBKTNV-6" target="SI-zspWhiQiBHQJMssZY-1">
          <mxGeometry relative="1" as="geometry">
            <mxPoint as="offset" />
          </mxGeometry>
        </mxCell>
        <mxCell id="SI-zspWhiQiBHQJMssZY-14" value="" style="edgeStyle=orthogonalEdgeStyle;rounded=0;orthogonalLoop=1;jettySize=auto;html=1;" edge="1" parent="WIyWlLk6GJQsqaUBKTNV-1" source="WIyWlLk6GJQsqaUBKTNV-6" target="SI-zspWhiQiBHQJMssZY-13">
          <mxGeometry relative="1" as="geometry" />
        </mxCell>
        <mxCell id="WIyWlLk6GJQsqaUBKTNV-6" value="SSH Port offen?" style="rhombus;whiteSpace=wrap;html=1;shadow=0;fontFamily=Helvetica;fontSize=12;align=center;strokeWidth=1;spacing=6;spacingTop=-4;" parent="WIyWlLk6GJQsqaUBKTNV-1" vertex="1">
          <mxGeometry x="160" y="180" width="120" height="80" as="geometry" />
        </mxCell>
        <mxCell id="SI-zspWhiQiBHQJMssZY-6" value="" style="edgeStyle=orthogonalEdgeStyle;rounded=0;orthogonalLoop=1;jettySize=auto;html=1;" edge="1" parent="WIyWlLk6GJQsqaUBKTNV-1" source="SI-zspWhiQiBHQJMssZY-1" target="SI-zspWhiQiBHQJMssZY-5">
          <mxGeometry relative="1" as="geometry" />
        </mxCell>
        <mxCell id="SI-zspWhiQiBHQJMssZY-7" value="Yes" style="edgeLabel;html=1;align=center;verticalAlign=middle;resizable=0;points=[];" vertex="1" connectable="0" parent="SI-zspWhiQiBHQJMssZY-6">
          <mxGeometry x="0.1" y="2" relative="1" as="geometry">
            <mxPoint as="offset" />
          </mxGeometry>
        </mxCell>
        <mxCell id="SI-zspWhiQiBHQJMssZY-9" value="" style="edgeStyle=orthogonalEdgeStyle;rounded=0;orthogonalLoop=1;jettySize=auto;html=1;" edge="1" parent="WIyWlLk6GJQsqaUBKTNV-1" source="SI-zspWhiQiBHQJMssZY-1" target="SI-zspWhiQiBHQJMssZY-8">
          <mxGeometry relative="1" as="geometry" />
        </mxCell>
        <mxCell id="SI-zspWhiQiBHQJMssZY-12" value="No" style="edgeLabel;html=1;align=center;verticalAlign=middle;resizable=0;points=[];" vertex="1" connectable="0" parent="SI-zspWhiQiBHQJMssZY-9">
          <mxGeometry x="-0.05" relative="1" as="geometry">
            <mxPoint as="offset" />
          </mxGeometry>
        </mxCell>
        <mxCell id="SI-zspWhiQiBHQJMssZY-1" value="Nur 1 SSH Port?" style="rhombus;whiteSpace=wrap;html=1;shadow=0;fontFamily=Helvetica;fontSize=12;align=center;strokeWidth=1;spacing=6;spacingTop=-4;" vertex="1" parent="WIyWlLk6GJQsqaUBKTNV-1">
          <mxGeometry x="360" y="180" width="120" height="80" as="geometry" />
        </mxCell>
        <mxCell id="SI-zspWhiQiBHQJMssZY-5" value="Passwort raten" style="rounded=1;whiteSpace=wrap;html=1;shadow=0;strokeWidth=1;spacing=6;spacingTop=-4;" vertex="1" parent="WIyWlLk6GJQsqaUBKTNV-1">
          <mxGeometry x="560" y="190" width="120" height="60" as="geometry" />
        </mxCell>
        <mxCell id="SI-zspWhiQiBHQJMssZY-11" value="" style="edgeStyle=orthogonalEdgeStyle;rounded=0;orthogonalLoop=1;jettySize=auto;html=1;" edge="1" parent="WIyWlLk6GJQsqaUBKTNV-1" source="SI-zspWhiQiBHQJMssZY-8" target="SI-zspWhiQiBHQJMssZY-10">
          <mxGeometry relative="1" as="geometry" />
        </mxCell>
        <mxCell id="SI-zspWhiQiBHQJMssZY-8" value="Mindestens 2?" style="rhombus;whiteSpace=wrap;html=1;shadow=0;fontFamily=Helvetica;fontSize=12;align=center;strokeWidth=1;spacing=6;spacingTop=-4;" vertex="1" parent="WIyWlLk6GJQsqaUBKTNV-1">
          <mxGeometry x="360" y="340" width="120" height="80" as="geometry" />
        </mxCell>
        <mxCell id="SI-zspWhiQiBHQJMssZY-75" style="edgeStyle=orthogonalEdgeStyle;rounded=0;orthogonalLoop=1;jettySize=auto;html=1;entryX=0.5;entryY=1;entryDx=0;entryDy=0;" edge="1" parent="WIyWlLk6GJQsqaUBKTNV-1" source="SI-zspWhiQiBHQJMssZY-10" target="SI-zspWhiQiBHQJMssZY-73">
          <mxGeometry relative="1" as="geometry" />
        </mxCell>
        <mxCell id="SI-zspWhiQiBHQJMssZY-10" value="Probably Docker" style="rounded=1;whiteSpace=wrap;html=1;shadow=0;strokeWidth=1;spacing=6;spacingTop=-4;" vertex="1" parent="WIyWlLk6GJQsqaUBKTNV-1">
          <mxGeometry x="560" y="350" width="120" height="60" as="geometry" />
        </mxCell>
        <mxCell id="SI-zspWhiQiBHQJMssZY-16" value="" style="edgeStyle=orthogonalEdgeStyle;rounded=0;orthogonalLoop=1;jettySize=auto;html=1;" edge="1" parent="WIyWlLk6GJQsqaUBKTNV-1" source="SI-zspWhiQiBHQJMssZY-13" target="SI-zspWhiQiBHQJMssZY-15">
          <mxGeometry relative="1" as="geometry" />
        </mxCell>
        <mxCell id="SI-zspWhiQiBHQJMssZY-25" value="Yes" style="edgeLabel;html=1;align=center;verticalAlign=middle;resizable=0;points=[];" vertex="1" connectable="0" parent="SI-zspWhiQiBHQJMssZY-16">
          <mxGeometry x="-0.075" y="-2" relative="1" as="geometry">
            <mxPoint y="-2" as="offset" />
          </mxGeometry>
        </mxCell>
        <mxCell id="SI-zspWhiQiBHQJMssZY-60" value="" style="edgeStyle=orthogonalEdgeStyle;rounded=0;orthogonalLoop=1;jettySize=auto;html=1;" edge="1" parent="WIyWlLk6GJQsqaUBKTNV-1" source="SI-zspWhiQiBHQJMssZY-13" target="SI-zspWhiQiBHQJMssZY-59">
          <mxGeometry relative="1" as="geometry" />
        </mxCell>
        <mxCell id="SI-zspWhiQiBHQJMssZY-13" value="Irgendwas Website&lt;div&gt;artiges?&lt;/div&gt;" style="rhombus;whiteSpace=wrap;html=1;shadow=0;fontFamily=Helvetica;fontSize=12;align=center;strokeWidth=1;spacing=6;spacingTop=-4;" vertex="1" parent="WIyWlLk6GJQsqaUBKTNV-1">
          <mxGeometry x="160" y="510" width="120" height="80" as="geometry" />
        </mxCell>
        <mxCell id="SI-zspWhiQiBHQJMssZY-24" value="" style="edgeStyle=orthogonalEdgeStyle;rounded=0;orthogonalLoop=1;jettySize=auto;html=1;" edge="1" parent="WIyWlLk6GJQsqaUBKTNV-1" source="SI-zspWhiQiBHQJMssZY-15" target="SI-zspWhiQiBHQJMssZY-23">
          <mxGeometry relative="1" as="geometry" />
        </mxCell>
        <mxCell id="SI-zspWhiQiBHQJMssZY-39" value="" style="edgeStyle=orthogonalEdgeStyle;rounded=0;orthogonalLoop=1;jettySize=auto;html=1;" edge="1" parent="WIyWlLk6GJQsqaUBKTNV-1" source="SI-zspWhiQiBHQJMssZY-15" target="SI-zspWhiQiBHQJMssZY-38">
          <mxGeometry relative="1" as="geometry" />
        </mxCell>
        <mxCell id="SI-zspWhiQiBHQJMssZY-15" value="Wie ein 5 jÃ¤hriger einmal alles anklicken" style="rounded=1;whiteSpace=wrap;html=1;shadow=0;strokeWidth=1;spacing=6;spacingTop=-4;" vertex="1" parent="WIyWlLk6GJQsqaUBKTNV-1">
          <mxGeometry x="360" y="520" width="120" height="60" as="geometry" />
        </mxCell>
        <mxCell id="SI-zspWhiQiBHQJMssZY-29" value="" style="edgeStyle=orthogonalEdgeStyle;rounded=0;orthogonalLoop=1;jettySize=auto;html=1;" edge="1" parent="WIyWlLk6GJQsqaUBKTNV-1" source="SI-zspWhiQiBHQJMssZY-23" target="SI-zspWhiQiBHQJMssZY-28">
          <mxGeometry relative="1" as="geometry" />
        </mxCell>
        <mxCell id="SI-zspWhiQiBHQJMssZY-23" value="User Input?" style="rhombus;whiteSpace=wrap;html=1;rounded=1;shadow=0;strokeWidth=1;spacing=6;spacingTop=-4;" vertex="1" parent="WIyWlLk6GJQsqaUBKTNV-1">
          <mxGeometry x="555" y="510" width="130" height="80" as="geometry" />
        </mxCell>
        <mxCell id="SI-zspWhiQiBHQJMssZY-31" value="" style="edgeStyle=orthogonalEdgeStyle;rounded=0;orthogonalLoop=1;jettySize=auto;html=1;" edge="1" parent="WIyWlLk6GJQsqaUBKTNV-1" source="SI-zspWhiQiBHQJMssZY-28" target="SI-zspWhiQiBHQJMssZY-30">
          <mxGeometry relative="1" as="geometry" />
        </mxCell>
        <mxCell id="SI-zspWhiQiBHQJMssZY-32" value="Yes" style="edgeLabel;html=1;align=center;verticalAlign=middle;resizable=0;points=[];" vertex="1" connectable="0" parent="SI-zspWhiQiBHQJMssZY-31">
          <mxGeometry x="0.0118" y="2" relative="1" as="geometry">
            <mxPoint as="offset" />
          </mxGeometry>
        </mxCell>
        <mxCell id="SI-zspWhiQiBHQJMssZY-34" value="" style="edgeStyle=orthogonalEdgeStyle;rounded=0;orthogonalLoop=1;jettySize=auto;html=1;" edge="1" parent="WIyWlLk6GJQsqaUBKTNV-1" source="SI-zspWhiQiBHQJMssZY-28" target="SI-zspWhiQiBHQJMssZY-33">
          <mxGeometry relative="1" as="geometry" />
        </mxCell>
        <mxCell id="SI-zspWhiQiBHQJMssZY-28" value="Wird gespeichert?&lt;div&gt;und angezeigt&lt;/div&gt;" style="rhombus;whiteSpace=wrap;html=1;rounded=1;shadow=0;strokeWidth=1;spacing=6;spacingTop=-4;" vertex="1" parent="WIyWlLk6GJQsqaUBKTNV-1">
          <mxGeometry x="765" y="510" width="130" height="80" as="geometry" />
        </mxCell>
        <mxCell id="SI-zspWhiQiBHQJMssZY-30" value="Maybe SQL" style="rounded=1;whiteSpace=wrap;html=1;shadow=0;strokeWidth=1;spacing=6;spacingTop=-4;" vertex="1" parent="WIyWlLk6GJQsqaUBKTNV-1">
          <mxGeometry x="980" y="520" width="120" height="60" as="geometry" />
        </mxCell>
        <mxCell id="SI-zspWhiQiBHQJMssZY-36" value="" style="edgeStyle=orthogonalEdgeStyle;rounded=0;orthogonalLoop=1;jettySize=auto;html=1;" edge="1" parent="WIyWlLk6GJQsqaUBKTNV-1" source="SI-zspWhiQiBHQJMssZY-33" target="SI-zspWhiQiBHQJMssZY-35">
          <mxGeometry relative="1" as="geometry" />
        </mxCell>
        <mxCell id="SI-zspWhiQiBHQJMssZY-37" value="Yes" style="edgeLabel;html=1;align=center;verticalAlign=middle;resizable=0;points=[];" vertex="1" connectable="0" parent="SI-zspWhiQiBHQJMssZY-36">
          <mxGeometry x="0.0118" y="1" relative="1" as="geometry">
            <mxPoint as="offset" />
          </mxGeometry>
        </mxCell>
        <mxCell id="SI-zspWhiQiBHQJMssZY-41" value="" style="edgeStyle=orthogonalEdgeStyle;rounded=0;orthogonalLoop=1;jettySize=auto;html=1;" edge="1" parent="WIyWlLk6GJQsqaUBKTNV-1" source="SI-zspWhiQiBHQJMssZY-33" target="SI-zspWhiQiBHQJMssZY-40">
          <mxGeometry relative="1" as="geometry" />
        </mxCell>
        <mxCell id="SI-zspWhiQiBHQJMssZY-33" value="Wird nur angezeigt?" style="rhombus;whiteSpace=wrap;html=1;rounded=1;shadow=0;strokeWidth=1;spacing=6;spacingTop=-4;" vertex="1" parent="WIyWlLk6GJQsqaUBKTNV-1">
          <mxGeometry x="765" y="670" width="130" height="80" as="geometry" />
        </mxCell>
        <mxCell id="SI-zspWhiQiBHQJMssZY-35" value="Template Injection?" style="rounded=1;whiteSpace=wrap;html=1;shadow=0;strokeWidth=1;spacing=6;spacingTop=-4;" vertex="1" parent="WIyWlLk6GJQsqaUBKTNV-1">
          <mxGeometry x="980" y="680" width="120" height="60" as="geometry" />
        </mxCell>
        <mxCell id="SI-zspWhiQiBHQJMssZY-55" value="" style="edgeStyle=orthogonalEdgeStyle;rounded=0;orthogonalLoop=1;jettySize=auto;html=1;" edge="1" parent="WIyWlLk6GJQsqaUBKTNV-1" source="SI-zspWhiQiBHQJMssZY-38" target="SI-zspWhiQiBHQJMssZY-54">
          <mxGeometry relative="1" as="geometry" />
        </mxCell>
        <mxCell id="SI-zspWhiQiBHQJMssZY-57" value="" style="edgeStyle=orthogonalEdgeStyle;rounded=0;orthogonalLoop=1;jettySize=auto;html=1;" edge="1" parent="WIyWlLk6GJQsqaUBKTNV-1" source="SI-zspWhiQiBHQJMssZY-38" target="SI-zspWhiQiBHQJMssZY-56">
          <mxGeometry relative="1" as="geometry" />
        </mxCell>
        <mxCell id="SI-zspWhiQiBHQJMssZY-38" value="Schauen, ob lustige Ressourcen im Hintergrund geladen werden" style="rounded=1;whiteSpace=wrap;html=1;shadow=0;strokeWidth=1;spacing=6;spacingTop=-4;" vertex="1" parent="WIyWlLk6GJQsqaUBKTNV-1">
          <mxGeometry x="360" y="660" width="120" height="60" as="geometry" />
        </mxCell>
        <mxCell id="SI-zspWhiQiBHQJMssZY-43" value="" style="edgeStyle=orthogonalEdgeStyle;rounded=0;orthogonalLoop=1;jettySize=auto;html=1;" edge="1" parent="WIyWlLk6GJQsqaUBKTNV-1" source="SI-zspWhiQiBHQJMssZY-40" target="SI-zspWhiQiBHQJMssZY-42">
          <mxGeometry relative="1" as="geometry" />
        </mxCell>
        <mxCell id="SI-zspWhiQiBHQJMssZY-44" value="Yes" style="edgeLabel;html=1;align=center;verticalAlign=middle;resizable=0;points=[];" vertex="1" connectable="0" parent="SI-zspWhiQiBHQJMssZY-43">
          <mxGeometry x="0.1709" y="-2" relative="1" as="geometry">
            <mxPoint x="-14" y="-2" as="offset" />
          </mxGeometry>
        </mxCell>
        <mxCell id="SI-zspWhiQiBHQJMssZY-48" value="" style="edgeStyle=orthogonalEdgeStyle;rounded=0;orthogonalLoop=1;jettySize=auto;html=1;" edge="1" parent="WIyWlLk6GJQsqaUBKTNV-1" source="SI-zspWhiQiBHQJMssZY-40" target="SI-zspWhiQiBHQJMssZY-47">
          <mxGeometry relative="1" as="geometry" />
        </mxCell>
        <mxCell id="SI-zspWhiQiBHQJMssZY-40" value="schaut sichs wer an?" style="rhombus;whiteSpace=wrap;html=1;rounded=1;shadow=0;strokeWidth=1;spacing=6;spacingTop=-4;" vertex="1" parent="WIyWlLk6GJQsqaUBKTNV-1">
          <mxGeometry x="765" y="830" width="130" height="80" as="geometry" />
        </mxCell>
        <mxCell id="SI-zspWhiQiBHQJMssZY-42" value="XSS?" style="rounded=1;whiteSpace=wrap;html=1;shadow=0;strokeWidth=1;spacing=6;spacingTop=-4;" vertex="1" parent="WIyWlLk6GJQsqaUBKTNV-1">
          <mxGeometry x="980" y="840" width="120" height="60" as="geometry" />
        </mxCell>
        <mxCell id="SI-zspWhiQiBHQJMssZY-50" value="" style="edgeStyle=orthogonalEdgeStyle;rounded=0;orthogonalLoop=1;jettySize=auto;html=1;" edge="1" parent="WIyWlLk6GJQsqaUBKTNV-1" source="SI-zspWhiQiBHQJMssZY-47" target="SI-zspWhiQiBHQJMssZY-49">
          <mxGeometry relative="1" as="geometry" />
        </mxCell>
        <mxCell id="SI-zspWhiQiBHQJMssZY-51" value="Yes" style="edgeLabel;html=1;align=center;verticalAlign=middle;resizable=0;points=[];" vertex="1" connectable="0" parent="SI-zspWhiQiBHQJMssZY-50">
          <mxGeometry x="-0.1336" y="-2" relative="1" as="geometry">
            <mxPoint as="offset" />
          </mxGeometry>
        </mxCell>
        <mxCell id="SI-zspWhiQiBHQJMssZY-53" value="" style="edgeStyle=orthogonalEdgeStyle;rounded=0;orthogonalLoop=1;jettySize=auto;html=1;" edge="1" parent="WIyWlLk6GJQsqaUBKTNV-1" source="SI-zspWhiQiBHQJMssZY-47" target="SI-zspWhiQiBHQJMssZY-52">
          <mxGeometry relative="1" as="geometry" />
        </mxCell>
        <mxCell id="SI-zspWhiQiBHQJMssZY-58" value="Nein" style="edgeLabel;html=1;align=center;verticalAlign=middle;resizable=0;points=[];" vertex="1" connectable="0" parent="SI-zspWhiQiBHQJMssZY-53">
          <mxGeometry x="-0.1778" y="3" relative="1" as="geometry">
            <mxPoint x="-6" as="offset" />
          </mxGeometry>
        </mxCell>
        <mxCell id="SI-zspWhiQiBHQJMssZY-47" value="Wird irgendwie anders verarbeitet?" style="rhombus;whiteSpace=wrap;html=1;rounded=1;shadow=0;strokeWidth=1;spacing=6;spacingTop=-4;" vertex="1" parent="WIyWlLk6GJQsqaUBKTNV-1">
          <mxGeometry x="765" y="990" width="130" height="80" as="geometry" />
        </mxCell>
        <mxCell id="SI-zspWhiQiBHQJMssZY-49" value="Joa kommt drauf an" style="whiteSpace=wrap;html=1;rounded=1;shadow=0;strokeWidth=1;spacing=6;spacingTop=-4;" vertex="1" parent="WIyWlLk6GJQsqaUBKTNV-1">
          <mxGeometry x="980" y="1000" width="120" height="60" as="geometry" />
        </mxCell>
        <mxCell id="SI-zspWhiQiBHQJMssZY-52" value="Maybe irrelevant" style="rounded=1;whiteSpace=wrap;html=1;shadow=0;strokeWidth=1;spacing=6;spacingTop=-4;" vertex="1" parent="WIyWlLk6GJQsqaUBKTNV-1">
          <mxGeometry x="770" y="1160" width="120" height="60" as="geometry" />
        </mxCell>
        <mxCell id="SI-zspWhiQiBHQJMssZY-54" value="Developer Tools&lt;div&gt;-&amp;gt; Resources&lt;/div&gt;" style="rounded=1;whiteSpace=wrap;html=1;shadow=0;strokeWidth=1;spacing=6;spacingTop=-4;" vertex="1" parent="WIyWlLk6GJQsqaUBKTNV-1">
          <mxGeometry x="560" y="660" width="120" height="60" as="geometry" />
        </mxCell>
        <mxCell id="SI-zspWhiQiBHQJMssZY-56" value="Gobuster auf Lock raufhauen" style="whiteSpace=wrap;html=1;rounded=1;shadow=0;strokeWidth=1;spacing=6;spacingTop=-4;" vertex="1" parent="WIyWlLk6GJQsqaUBKTNV-1">
          <mxGeometry x="360" y="800" width="120" height="60" as="geometry" />
        </mxCell>
        <mxCell id="SI-zspWhiQiBHQJMssZY-62" value="" style="edgeStyle=orthogonalEdgeStyle;rounded=0;orthogonalLoop=1;jettySize=auto;html=1;" edge="1" parent="WIyWlLk6GJQsqaUBKTNV-1" source="SI-zspWhiQiBHQJMssZY-59" target="SI-zspWhiQiBHQJMssZY-61">
          <mxGeometry relative="1" as="geometry" />
        </mxCell>
        <mxCell id="SI-zspWhiQiBHQJMssZY-64" value="" style="edgeStyle=orthogonalEdgeStyle;rounded=0;orthogonalLoop=1;jettySize=auto;html=1;" edge="1" parent="WIyWlLk6GJQsqaUBKTNV-1" source="SI-zspWhiQiBHQJMssZY-59" target="SI-zspWhiQiBHQJMssZY-63">
          <mxGeometry relative="1" as="geometry" />
        </mxCell>
        <mxCell id="SI-zspWhiQiBHQJMssZY-59" value="RDP oder so?" style="rhombus;whiteSpace=wrap;html=1;shadow=0;fontFamily=Helvetica;fontSize=12;align=center;strokeWidth=1;spacing=6;spacingTop=-4;" vertex="1" parent="WIyWlLk6GJQsqaUBKTNV-1">
          <mxGeometry x="160" y="1250" width="120" height="80" as="geometry" />
        </mxCell>
        <mxCell id="SI-zspWhiQiBHQJMssZY-61" value="Versuchen zu verbinden" style="rounded=1;whiteSpace=wrap;html=1;shadow=0;strokeWidth=1;spacing=6;spacingTop=-4;" vertex="1" parent="WIyWlLk6GJQsqaUBKTNV-1">
          <mxGeometry x="360" y="1260" width="120" height="60" as="geometry" />
        </mxCell>
        <mxCell id="SI-zspWhiQiBHQJMssZY-66" value="" style="edgeStyle=orthogonalEdgeStyle;rounded=0;orthogonalLoop=1;jettySize=auto;html=1;" edge="1" parent="WIyWlLk6GJQsqaUBKTNV-1" source="SI-zspWhiQiBHQJMssZY-63" target="SI-zspWhiQiBHQJMssZY-65">
          <mxGeometry relative="1" as="geometry" />
        </mxCell>
        <mxCell id="SI-zspWhiQiBHQJMssZY-92" value="" style="edgeStyle=orthogonalEdgeStyle;rounded=0;orthogonalLoop=1;jettySize=auto;html=1;" edge="1" parent="WIyWlLk6GJQsqaUBKTNV-1" source="SI-zspWhiQiBHQJMssZY-63" target="SI-zspWhiQiBHQJMssZY-91">
          <mxGeometry relative="1" as="geometry" />
        </mxCell>
        <mxCell id="SI-zspWhiQiBHQJMssZY-63" value="Bekannter Service?" style="rhombus;whiteSpace=wrap;html=1;shadow=0;fontFamily=Helvetica;fontSize=12;align=center;strokeWidth=1;spacing=6;spacingTop=-4;" vertex="1" parent="WIyWlLk6GJQsqaUBKTNV-1">
          <mxGeometry x="160" y="1410" width="120" height="80" as="geometry" />
        </mxCell>
        <mxCell id="SI-zspWhiQiBHQJMssZY-70" value="" style="edgeStyle=orthogonalEdgeStyle;rounded=0;orthogonalLoop=1;jettySize=auto;html=1;" edge="1" parent="WIyWlLk6GJQsqaUBKTNV-1" source="SI-zspWhiQiBHQJMssZY-65" target="SI-zspWhiQiBHQJMssZY-69">
          <mxGeometry relative="1" as="geometry" />
        </mxCell>
        <mxCell id="SI-zspWhiQiBHQJMssZY-65" value="Mal nach Schwachstellen googeln" style="rounded=1;whiteSpace=wrap;html=1;shadow=0;strokeWidth=1;spacing=6;spacingTop=-4;" vertex="1" parent="WIyWlLk6GJQsqaUBKTNV-1">
          <mxGeometry x="360" y="1420" width="120" height="60" as="geometry" />
        </mxCell>
        <mxCell id="SI-zspWhiQiBHQJMssZY-72" value="" style="edgeStyle=orthogonalEdgeStyle;rounded=0;orthogonalLoop=1;jettySize=auto;html=1;" edge="1" parent="WIyWlLk6GJQsqaUBKTNV-1" source="SI-zspWhiQiBHQJMssZY-69" target="SI-zspWhiQiBHQJMssZY-71">
          <mxGeometry relative="1" as="geometry" />
        </mxCell>
        <mxCell id="SI-zspWhiQiBHQJMssZY-69" value="StandardpasswÃ¶rter vom Login" style="whiteSpace=wrap;html=1;rounded=1;shadow=0;strokeWidth=1;spacing=6;spacingTop=-4;" vertex="1" parent="WIyWlLk6GJQsqaUBKTNV-1">
          <mxGeometry x="560" y="1420" width="120" height="60" as="geometry" />
        </mxCell>
        <mxCell id="SI-zspWhiQiBHQJMssZY-71" value="Mal selber aufsetzen" style="rounded=1;whiteSpace=wrap;html=1;shadow=0;strokeWidth=1;spacing=6;spacingTop=-4;" vertex="1" parent="WIyWlLk6GJQsqaUBKTNV-1">
          <mxGeometry x="760" y="1420" width="120" height="60" as="geometry" />
        </mxCell>
        <mxCell id="SI-zspWhiQiBHQJMssZY-77" value="" style="edgeStyle=orthogonalEdgeStyle;rounded=0;orthogonalLoop=1;jettySize=auto;html=1;" edge="1" parent="WIyWlLk6GJQsqaUBKTNV-1" source="SI-zspWhiQiBHQJMssZY-73" target="SI-zspWhiQiBHQJMssZY-76">
          <mxGeometry relative="1" as="geometry" />
        </mxCell>
        <mxCell id="SI-zspWhiQiBHQJMssZY-73" value="In einem Docker" style="rounded=1;whiteSpace=wrap;html=1;fontSize=12;glass=0;strokeWidth=1;shadow=0;" vertex="1" parent="WIyWlLk6GJQsqaUBKTNV-1">
          <mxGeometry x="800" y="80" width="120" height="40" as="geometry" />
        </mxCell>
        <mxCell id="SI-zspWhiQiBHQJMssZY-79" value="" style="edgeStyle=orthogonalEdgeStyle;rounded=0;orthogonalLoop=1;jettySize=auto;html=1;" edge="1" parent="WIyWlLk6GJQsqaUBKTNV-1" source="SI-zspWhiQiBHQJMssZY-76" target="SI-zspWhiQiBHQJMssZY-78">
          <mxGeometry relative="1" as="geometry" />
        </mxCell>
        <mxCell id="SI-zspWhiQiBHQJMssZY-85" value="" style="edgeStyle=orthogonalEdgeStyle;rounded=0;orthogonalLoop=1;jettySize=auto;html=1;" edge="1" parent="WIyWlLk6GJQsqaUBKTNV-1" source="SI-zspWhiQiBHQJMssZY-76" target="SI-zspWhiQiBHQJMssZY-84">
          <mxGeometry relative="1" as="geometry" />
        </mxCell>
        <mxCell id="SI-zspWhiQiBHQJMssZY-76" value="`id`&amp;nbsp;" style="rounded=1;whiteSpace=wrap;html=1;fontSize=12;glass=0;strokeWidth=1;shadow=0;" vertex="1" parent="WIyWlLk6GJQsqaUBKTNV-1">
          <mxGeometry x="1000" y="80" width="120" height="40" as="geometry" />
        </mxCell>
        <mxCell id="SI-zspWhiQiBHQJMssZY-81" value="" style="edgeStyle=orthogonalEdgeStyle;rounded=0;orthogonalLoop=1;jettySize=auto;html=1;" edge="1" parent="WIyWlLk6GJQsqaUBKTNV-1" source="SI-zspWhiQiBHQJMssZY-78" target="SI-zspWhiQiBHQJMssZY-80">
          <mxGeometry relative="1" as="geometry" />
        </mxCell>
        <mxCell id="SI-zspWhiQiBHQJMssZY-83" value="" style="edgeStyle=orthogonalEdgeStyle;rounded=0;orthogonalLoop=1;jettySize=auto;html=1;" edge="1" parent="WIyWlLk6GJQsqaUBKTNV-1" source="SI-zspWhiQiBHQJMssZY-78" target="SI-zspWhiQiBHQJMssZY-82">
          <mxGeometry relative="1" as="geometry" />
        </mxCell>
        <mxCell id="SI-zspWhiQiBHQJMssZY-78" value="`mount`&amp;nbsp;" style="rounded=1;whiteSpace=wrap;html=1;fontSize=12;glass=0;strokeWidth=1;shadow=0;" vertex="1" parent="WIyWlLk6GJQsqaUBKTNV-1">
          <mxGeometry x="1200" y="80" width="120" height="40" as="geometry" />
        </mxCell>
        <mxCell id="SI-zspWhiQiBHQJMssZY-88" value="" style="edgeStyle=orthogonalEdgeStyle;rounded=0;orthogonalLoop=1;jettySize=auto;html=1;" edge="1" parent="WIyWlLk6GJQsqaUBKTNV-1" source="SI-zspWhiQiBHQJMssZY-80" target="SI-zspWhiQiBHQJMssZY-87">
          <mxGeometry relative="1" as="geometry" />
        </mxCell>
        <mxCell id="SI-zspWhiQiBHQJMssZY-80" value="`docker`" style="rounded=1;whiteSpace=wrap;html=1;fontSize=12;glass=0;strokeWidth=1;shadow=0;" vertex="1" parent="WIyWlLk6GJQsqaUBKTNV-1">
          <mxGeometry x="1400" y="80" width="120" height="40" as="geometry" />
        </mxCell>
        <mxCell id="SI-zspWhiQiBHQJMssZY-106" value="" style="edgeStyle=orthogonalEdgeStyle;rounded=0;orthogonalLoop=1;jettySize=auto;html=1;" edge="1" parent="WIyWlLk6GJQsqaUBKTNV-1" source="SI-zspWhiQiBHQJMssZY-82" target="SI-zspWhiQiBHQJMssZY-105">
          <mxGeometry relative="1" as="geometry" />
        </mxCell>
        <mxCell id="SI-zspWhiQiBHQJMssZY-82" value="Hostsystem mounten, umschauen" style="rounded=1;whiteSpace=wrap;html=1;fontSize=12;glass=0;strokeWidth=1;shadow=0;" vertex="1" parent="WIyWlLk6GJQsqaUBKTNV-1">
          <mxGeometry x="1200" y="200" width="120" height="40" as="geometry" />
        </mxCell>
        <mxCell id="SI-zspWhiQiBHQJMssZY-86" value="" style="edgeStyle=orthogonalEdgeStyle;rounded=0;orthogonalLoop=1;jettySize=auto;html=1;" edge="1" parent="WIyWlLk6GJQsqaUBKTNV-1" source="SI-zspWhiQiBHQJMssZY-84" target="SI-zspWhiQiBHQJMssZY-82">
          <mxGeometry relative="1" as="geometry" />
        </mxCell>
        <mxCell id="SI-zspWhiQiBHQJMssZY-84" value="root? praktisch!" style="rounded=1;whiteSpace=wrap;html=1;fontSize=12;glass=0;strokeWidth=1;shadow=0;" vertex="1" parent="WIyWlLk6GJQsqaUBKTNV-1">
          <mxGeometry x="1000" y="200" width="120" height="40" as="geometry" />
        </mxCell>
        <mxCell id="SI-zspWhiQiBHQJMssZY-90" value="" style="edgeStyle=orthogonalEdgeStyle;rounded=0;orthogonalLoop=1;jettySize=auto;html=1;" edge="1" parent="WIyWlLk6GJQsqaUBKTNV-1" source="SI-zspWhiQiBHQJMssZY-87" target="SI-zspWhiQiBHQJMssZY-89">
          <mxGeometry relative="1" as="geometry" />
        </mxCell>
        <mxCell id="SI-zspWhiQiBHQJMssZY-87" value="`docker image ls`" style="rounded=1;whiteSpace=wrap;html=1;fontSize=12;glass=0;strokeWidth=1;shadow=0;" vertex="1" parent="WIyWlLk6GJQsqaUBKTNV-1">
          <mxGeometry x="1400" y="200" width="120" height="40" as="geometry" />
        </mxCell>
        <mxCell id="SI-zspWhiQiBHQJMssZY-89" value="`docker container ls`" style="rounded=1;whiteSpace=wrap;html=1;fontSize=12;glass=0;strokeWidth=1;shadow=0;" vertex="1" parent="WIyWlLk6GJQsqaUBKTNV-1">
          <mxGeometry x="1400" y="320" width="120" height="40" as="geometry" />
        </mxCell>
        <mxCell id="SI-zspWhiQiBHQJMssZY-96" value="" style="edgeStyle=orthogonalEdgeStyle;rounded=0;orthogonalLoop=1;jettySize=auto;html=1;" edge="1" parent="WIyWlLk6GJQsqaUBKTNV-1" source="SI-zspWhiQiBHQJMssZY-91" target="SI-zspWhiQiBHQJMssZY-95">
          <mxGeometry relative="1" as="geometry" />
        </mxCell>
        <mxCell id="SI-zspWhiQiBHQJMssZY-98" value="" style="edgeStyle=orthogonalEdgeStyle;rounded=0;orthogonalLoop=1;jettySize=auto;html=1;" edge="1" parent="WIyWlLk6GJQsqaUBKTNV-1" source="SI-zspWhiQiBHQJMssZY-91" target="SI-zspWhiQiBHQJMssZY-97">
          <mxGeometry relative="1" as="geometry" />
        </mxCell>
        <mxCell id="SI-zspWhiQiBHQJMssZY-91" value="NÃ¼scht offen?" style="rhombus;whiteSpace=wrap;html=1;shadow=0;fontFamily=Helvetica;fontSize=12;align=center;strokeWidth=1;spacing=6;spacingTop=-4;" vertex="1" parent="WIyWlLk6GJQsqaUBKTNV-1">
          <mxGeometry x="160" y="1570" width="120" height="80" as="geometry" />
        </mxCell>
        <mxCell id="SI-zspWhiQiBHQJMssZY-95" value="mal Arpspoofen" style="rounded=1;whiteSpace=wrap;html=1;shadow=0;strokeWidth=1;spacing=6;spacingTop=-4;" vertex="1" parent="WIyWlLk6GJQsqaUBKTNV-1">
          <mxGeometry x="360" y="1580" width="120" height="60" as="geometry" />
        </mxCell>
        <mxCell id="SI-zspWhiQiBHQJMssZY-100" value="" style="edgeStyle=orthogonalEdgeStyle;rounded=0;orthogonalLoop=1;jettySize=auto;html=1;" edge="1" parent="WIyWlLk6GJQsqaUBKTNV-1" source="SI-zspWhiQiBHQJMssZY-97" target="SI-zspWhiQiBHQJMssZY-99">
          <mxGeometry relative="1" as="geometry" />
        </mxCell>
        <mxCell id="SI-zspWhiQiBHQJMssZY-97" value="Irgendein TCP ScheiÃ?" style="rhombus;whiteSpace=wrap;html=1;shadow=0;fontFamily=Helvetica;fontSize=12;align=center;strokeWidth=1;spacing=6;spacingTop=-4;" vertex="1" parent="WIyWlLk6GJQsqaUBKTNV-1">
          <mxGeometry x="160" y="1730" width="120" height="80" as="geometry" />
        </mxCell>
        <mxCell id="SI-zspWhiQiBHQJMssZY-102" value="" style="edgeStyle=orthogonalEdgeStyle;rounded=0;orthogonalLoop=1;jettySize=auto;html=1;" edge="1" parent="WIyWlLk6GJQsqaUBKTNV-1" source="SI-zspWhiQiBHQJMssZY-99" target="SI-zspWhiQiBHQJMssZY-101">
          <mxGeometry relative="1" as="geometry" />
        </mxCell>
        <mxCell id="SI-zspWhiQiBHQJMssZY-99" value="mit `nc`/`ncat`/`netcat` verbinden" style="rounded=1;whiteSpace=wrap;html=1;shadow=0;strokeWidth=1;spacing=6;spacingTop=-4;" vertex="1" parent="WIyWlLk6GJQsqaUBKTNV-1">
          <mxGeometry x="360" y="1740" width="120" height="60" as="geometry" />
        </mxCell>
        <mxCell id="SI-zspWhiQiBHQJMssZY-101" value="Beten, dass man keinen TCP Client schreiben muss" style="rounded=1;whiteSpace=wrap;html=1;shadow=0;strokeWidth=1;spacing=6;spacingTop=-4;" vertex="1" parent="WIyWlLk6GJQsqaUBKTNV-1">
          <mxGeometry x="560" y="1740" width="120" height="60" as="geometry" />
        </mxCell>
        <mxCell id="SI-zspWhiQiBHQJMssZY-110" value="" style="edgeStyle=orthogonalEdgeStyle;rounded=0;orthogonalLoop=1;jettySize=auto;html=1;" edge="1" parent="WIyWlLk6GJQsqaUBKTNV-1" source="SI-zspWhiQiBHQJMssZY-105" target="SI-zspWhiQiBHQJMssZY-109">
          <mxGeometry relative="1" as="geometry" />
        </mxCell>
        <mxCell id="SI-zspWhiQiBHQJMssZY-111" value="Yes" style="edgeLabel;html=1;align=center;verticalAlign=middle;resizable=0;points=[];" vertex="1" connectable="0" parent="SI-zspWhiQiBHQJMssZY-110">
          <mxGeometry x="-0.1772" y="4" relative="1" as="geometry">
            <mxPoint x="-4" y="7" as="offset" />
          </mxGeometry>
        </mxCell>
        <mxCell id="SI-zspWhiQiBHQJMssZY-105" value="Flags-Ordner Accessible?" style="rhombus;whiteSpace=wrap;html=1;rounded=1;glass=0;strokeWidth=1;shadow=0;" vertex="1" parent="WIyWlLk6GJQsqaUBKTNV-1">
          <mxGeometry x="1195" y="300" width="130" height="80" as="geometry" />
        </mxCell>
        <mxCell id="SI-zspWhiQiBHQJMssZY-113" value="" style="edgeStyle=orthogonalEdgeStyle;rounded=0;orthogonalLoop=1;jettySize=auto;html=1;" edge="1" parent="WIyWlLk6GJQsqaUBKTNV-1" source="SI-zspWhiQiBHQJMssZY-109" target="SI-zspWhiQiBHQJMssZY-112">
          <mxGeometry relative="1" as="geometry" />
        </mxCell>
        <mxCell id="SI-zspWhiQiBHQJMssZY-114" value="Yes" style="edgeLabel;html=1;align=center;verticalAlign=middle;resizable=0;points=[];" vertex="1" connectable="0" parent="SI-zspWhiQiBHQJMssZY-113">
          <mxGeometry x="-0.3443" y="-1" relative="1" as="geometry">
            <mxPoint as="offset" />
          </mxGeometry>
        </mxCell>
        <mxCell id="SI-zspWhiQiBHQJMssZY-116" value="" style="edgeStyle=orthogonalEdgeStyle;rounded=0;orthogonalLoop=1;jettySize=auto;html=1;" edge="1" parent="WIyWlLk6GJQsqaUBKTNV-1" source="SI-zspWhiQiBHQJMssZY-109" target="SI-zspWhiQiBHQJMssZY-115">
          <mxGeometry relative="1" as="geometry" />
        </mxCell>
        <mxCell id="SI-zspWhiQiBHQJMssZY-117" value="No" style="edgeLabel;html=1;align=center;verticalAlign=middle;resizable=0;points=[];" vertex="1" connectable="0" parent="SI-zspWhiQiBHQJMssZY-116">
          <mxGeometry x="-0.0496" y="-2" relative="1" as="geometry">
            <mxPoint as="offset" />
          </mxGeometry>
        </mxCell>
        <mxCell id="SI-zspWhiQiBHQJMssZY-109" value="Auch was drin?" style="rhombus;whiteSpace=wrap;html=1;rounded=1;glass=0;strokeWidth=1;shadow=0;" vertex="1" parent="WIyWlLk6GJQsqaUBKTNV-1">
          <mxGeometry x="1195" y="460" width="130" height="80" as="geometry" />
        </mxCell>
        <mxCell id="SI-zspWhiQiBHQJMssZY-112" value="Spitze!" style="rounded=1;whiteSpace=wrap;html=1;glass=0;strokeWidth=1;shadow=0;" vertex="1" parent="WIyWlLk6GJQsqaUBKTNV-1">
          <mxGeometry x="1200" y="590" width="120" height="60" as="geometry" />
        </mxCell>
        <mxCell id="SI-zspWhiQiBHQJMssZY-121" value="" style="edgeStyle=orthogonalEdgeStyle;rounded=0;orthogonalLoop=1;jettySize=auto;html=1;" edge="1" parent="WIyWlLk6GJQsqaUBKTNV-1" source="SI-zspWhiQiBHQJMssZY-115" target="SI-zspWhiQiBHQJMssZY-120">
          <mxGeometry relative="1" as="geometry" />
        </mxCell>
        <mxCell id="SI-zspWhiQiBHQJMssZY-115" value="Joa dumm gelaufen" style="rounded=1;whiteSpace=wrap;html=1;glass=0;strokeWidth=1;shadow=0;" vertex="1" parent="WIyWlLk6GJQsqaUBKTNV-1">
          <mxGeometry x="1410" y="470" width="120" height="60" as="geometry" />
        </mxCell>
        <mxCell id="SI-zspWhiQiBHQJMssZY-123" value="" style="edgeStyle=orthogonalEdgeStyle;rounded=0;orthogonalLoop=1;jettySize=auto;html=1;" edge="1" parent="WIyWlLk6GJQsqaUBKTNV-1" source="SI-zspWhiQiBHQJMssZY-120" target="SI-zspWhiQiBHQJMssZY-122">
          <mxGeometry relative="1" as="geometry" />
        </mxCell>
        <mxCell id="SI-zspWhiQiBHQJMssZY-130" value="Yes" style="edgeLabel;html=1;align=center;verticalAlign=middle;resizable=0;points=[];" vertex="1" connectable="0" parent="SI-zspWhiQiBHQJMssZY-123">
          <mxGeometry x="-0.2052" y="1" relative="1" as="geometry">
            <mxPoint as="offset" />
          </mxGeometry>
        </mxCell>
        <mxCell id="SI-zspWhiQiBHQJMssZY-132" value="" style="edgeStyle=orthogonalEdgeStyle;rounded=0;orthogonalLoop=1;jettySize=auto;html=1;" edge="1" parent="WIyWlLk6GJQsqaUBKTNV-1" source="SI-zspWhiQiBHQJMssZY-120" target="SI-zspWhiQiBHQJMssZY-131">
          <mxGeometry relative="1" as="geometry" />
        </mxCell>
        <mxCell id="SI-zspWhiQiBHQJMssZY-133" value="No" style="edgeLabel;html=1;align=center;verticalAlign=middle;resizable=0;points=[];" vertex="1" connectable="0" parent="SI-zspWhiQiBHQJMssZY-132">
          <mxGeometry x="-0.0138" y="-3" relative="1" as="geometry">
            <mxPoint y="-3" as="offset" />
          </mxGeometry>
        </mxCell>
        <mxCell id="SI-zspWhiQiBHQJMssZY-120" value=".ssh Ordner von irgendwem?" style="rhombus;whiteSpace=wrap;html=1;rounded=1;glass=0;strokeWidth=1;shadow=0;" vertex="1" parent="WIyWlLk6GJQsqaUBKTNV-1">
          <mxGeometry x="1630" y="460" width="130" height="80" as="geometry" />
        </mxCell>
        <mxCell id="SI-zspWhiQiBHQJMssZY-125" value="" style="edgeStyle=orthogonalEdgeStyle;rounded=0;orthogonalLoop=1;jettySize=auto;html=1;" edge="1" parent="WIyWlLk6GJQsqaUBKTNV-1" source="SI-zspWhiQiBHQJMssZY-122" target="SI-zspWhiQiBHQJMssZY-124">
          <mxGeometry relative="1" as="geometry" />
        </mxCell>
        <mxCell id="SI-zspWhiQiBHQJMssZY-122" value="eigenen in authorized_keys pasten" style="rounded=1;whiteSpace=wrap;html=1;glass=0;strokeWidth=1;shadow=0;" vertex="1" parent="WIyWlLk6GJQsqaUBKTNV-1">
          <mxGeometry x="1635" y="590" width="120" height="60" as="geometry" />
        </mxCell>
        <mxCell id="SI-zspWhiQiBHQJMssZY-127" value="" style="edgeStyle=orthogonalEdgeStyle;rounded=0;orthogonalLoop=1;jettySize=auto;html=1;" edge="1" parent="WIyWlLk6GJQsqaUBKTNV-1" source="SI-zspWhiQiBHQJMssZY-124" target="SI-zspWhiQiBHQJMssZY-126">
          <mxGeometry relative="1" as="geometry" />
        </mxCell>
        <mxCell id="SI-zspWhiQiBHQJMssZY-124" value="Owner entsprechend dem User setzen" style="rounded=1;whiteSpace=wrap;html=1;glass=0;strokeWidth=1;shadow=0;" vertex="1" parent="WIyWlLk6GJQsqaUBKTNV-1">
          <mxGeometry x="1635" y="720" width="120" height="60" as="geometry" />
        </mxCell>
        <mxCell id="SI-zspWhiQiBHQJMssZY-129" value="" style="edgeStyle=orthogonalEdgeStyle;rounded=0;orthogonalLoop=1;jettySize=auto;html=1;" edge="1" parent="WIyWlLk6GJQsqaUBKTNV-1" source="SI-zspWhiQiBHQJMssZY-126" target="SI-zspWhiQiBHQJMssZY-128">
          <mxGeometry relative="1" as="geometry" />
        </mxCell>
        <mxCell id="SI-zspWhiQiBHQJMssZY-126" value="`chmod 600`" style="rounded=1;whiteSpace=wrap;html=1;glass=0;strokeWidth=1;shadow=0;" vertex="1" parent="WIyWlLk6GJQsqaUBKTNV-1">
          <mxGeometry x="1635" y="860" width="120" height="60" as="geometry" />
        </mxCell>
        <mxCell id="SI-zspWhiQiBHQJMssZY-128" value="Verbinden und aufs Beste hoffen" style="rounded=1;whiteSpace=wrap;html=1;glass=0;strokeWidth=1;shadow=0;" vertex="1" parent="WIyWlLk6GJQsqaUBKTNV-1">
          <mxGeometry x="1635" y="1000" width="120" height="60" as="geometry" />
        </mxCell>
        <mxCell id="SI-zspWhiQiBHQJMssZY-131" value="Das ja jetzt doof" style="rounded=1;whiteSpace=wrap;html=1;glass=0;strokeWidth=1;shadow=0;" vertex="1" parent="WIyWlLk6GJQsqaUBKTNV-1">
          <mxGeometry x="1845" y="470" width="120" height="60" as="geometry" />
        </mxCell>
      </root>
    </mxGraphModel>
  </diagram>
</mxfile>
